<?xml version="1.0" standalone="no"?>
<!DOCTYPE svg PUBLIC "-//W3C//DTD SVG 20010904//EN"
 "http://www.w3.org/TR/2001/REC-SVG-20010904/DTD/svg10.dtd">
<svg version="1.0" xmlns="http://www.w3.org/2000/svg"
 width="512.000000pt" height="512.000000pt" viewBox="0 0 512.000000 512.000000"
 preserveAspectRatio="xMidYMid meet">
<metadata>
Created by potrace 1.11, written by Peter Selinger 2001-2013
</metadata>
<g transform="translate(0.000000,512.000000) scale(0.100000,-0.100000)"
fill="#000000" stroke="none">
<path d="M1094 2548 l1 -1923 396 -1 397 -2 0 657 c0 361 1 665 1 677 1 21 3
21 397 21 475 1 555 6 774 49 118 23 277 81 386 139 278 149 472 388 548 674
35 132 41 183 41 371 -1 239 -42 413 -142 598 -176 326 -496 546 -911 626 -42
9 -93 19 -112 22 -19 4 -427 9 -906 11 l-872 4 2 -1923z m1646 1268 c62 -13
164 -49 203 -70 102 -57 196 -164 240 -271 22 -54 29 -76 43 -140 12 -52 10
-225 -3 -288 -30 -146 -110 -262 -226 -330 -47 -28 -175 -74 -229 -83 -18 -3
-223 -7 -455 -9 l-423 -3 -1 26 c0 40 -1 1134 0 1157 1 20 6 20 409 20 224 -1
423 -5 442 -9z"/>
</g>
</svg>
